<?xml version="1.0" encoding="UTF-8" standalone="no"?>
<!-- Created with Inkscape (http://www.inkscape.org/) -->

<svg
   xmlns:dc="http://purl.org/dc/elements/1.1/"
   xmlns:cc="http://creativecommons.org/ns#"
   xmlns:rdf="http://www.w3.org/1999/02/22-rdf-syntax-ns#"
   xmlns:svg="http://www.w3.org/2000/svg"
   xmlns="http://www.w3.org/2000/svg"
   xmlns:sodipodi="http://sodipodi.sourceforge.net/DTD/sodipodi-0.dtd"
   xmlns:inkscape="http://www.inkscape.org/namespaces/inkscape"
   version="1.1"
   id="svg2"
   width="512"
   height="512"
   viewBox="0 0 512 512"
   sodipodi:docname="airfreight-new.svg"
   inkscape:version="0.92.3 (2405546, 2018-03-11)">
  <metadata
     id="metadata8">
    <rdf:RDF>
      <cc:Work
         rdf:about="">
        <dc:format>image/svg+xml</dc:format>
        <dc:type
           rdf:resource="http://purl.org/dc/dcmitype/StillImage" />
        <dc:title></dc:title>
      </cc:Work>
    </rdf:RDF>
  </metadata>
  <defs
     id="defs6" />
  <sodipodi:namedview
     pagecolor="#ffffff"
     bordercolor="#666666"
     borderopacity="1"
     objecttolerance="10"
     gridtolerance="10"
     guidetolerance="10"
     inkscape:pageopacity="0"
     inkscape:pageshadow="2"
     inkscape:window-width="1853"
     inkscape:window-height="1025"
     id="namedview4"
     showgrid="false"
     inkscape:zoom="0.921875"
     inkscape:cx="221.46141"
     inkscape:cy="172.70463"
     inkscape:window-x="67"
     inkscape:window-y="27"
     inkscape:window-maximized="1"
     inkscape:current-layer="svg2" />
  <path
     style="fill:#ff6600;stroke-width:2.16949153"
     d="m 169.48951,506.87951 c -5.073,-2.50045 -13.94517,-13.35246 -30.99922,-37.91671 -13.14065,-18.92751 -24.65548,-34.41364 -25.58848,-34.41364 -0.93301,0 -10.902,3.93802 -22.153331,8.75116 -21.40975,9.15875 -27.20488,9.89282 -30.94766,3.92014 -1.72052,-2.74557 -0.30649,-8.15153 5.95842,-22.77966 12.84098,-29.98276 15.10323,-25.06739 -24.04617,-52.24736 -20.10305,-13.9568 -35.7375402,-26.38694 -37.6215602,-29.91085 -4.54169004,-8.49486 -3.88753004,-24.98907 1.26556,-31.91057 6.2011502,-8.3292 15.8025102,-13.2334 25.7457102,-13.15042 4.84872,0.0406 24.4362,4.72776 43.52773,10.41619 19.09153,5.68845 36.687281,10.77094 39.101681,11.29441 3.43935,0.74572 6.58265,-2.25325 14.51772,-13.8512 5.57037,-8.14167 20.00271,-24.9638 32.07187,-37.38251 17.93262,-18.45198 21.42579,-23.08391 19.10938,-25.33888 -1.559,-1.51767 -21.38371,-16.16391 -44.05489,-32.54722 C 112.70509,193.42909 75.480489,166.52673 52.654949,150.02937 21.807709,127.73424 10.251389,118.1321 7.6380088,112.6248 c -9.5651,-20.156934 1.59197,-42.652873 22.8662902,-46.105222 6.64056,-1.077615 53.26719,5.80019 135.430761,19.977138 16.80733,2.90003 33.42059,5.27277 36.91835,5.27277 5.21517,0 10.64729,-4.32175 30.18697,-24.016513 27.81841,-28.039188 32.66557,-31.133807 46.34968,-29.591409 7.86866,0.88691 11.36695,2.74491 17.24521,9.159196 6.88377,7.511489 7.30903,8.831814 6.39494,19.854564 -0.89797,10.828342 -1.94302,12.783898 -12.59624,23.571132 -6.38937,6.46973 -11.07131,12.308864 -10.40432,12.975854 0.66697,0.66698 7.44368,2.19255 15.05931,3.39015 7.61565,1.19761 15.48084,2.67081 17.47823,3.27379 2.54147,0.76723 15.56607,-10.694284 43.38984,-38.182667 50.52017,-49.911199 72.08066,-64.6817337 101.47833,-69.5201687 23.1267,-3.806326 38.74246,2.66397 47.29685,19.5971787 6.26681,12.404981 6.1927,23.973825 -0.28423,44.369775 -8.17356,25.738738 -24.12231,47.114792 -67.02416,89.832272 l -37.75677,37.59451 3.0563,17.69757 c 1.68094,9.73367 3.44272,18.084 3.91502,18.5563 0.4723,0.47232 6.30016,-4.1144 12.95076,-10.19269 12.64473,-11.55658 22.09329,-15.09612 33.06103,-12.38507 8.0425,1.98798 17.27991,11.11891 20.20016,19.96732 4.27977,12.96785 -0.3223,20.91962 -28.90251,49.93976 l -26.03251,26.43324 3.7289,23.46506 c 6.01795,37.8698 16.18302,100.07262 19.66221,120.31842 5.38042,31.30943 3.95858,39.95028 -8.48699,51.57697 -7.24655,6.76977 -25.71761,8.76138 -35.29992,3.80618 -3.91934,-2.02678 -15.10752,-15.25328 -28.18842,-33.32398 -11.92934,-16.47984 -36.13013,-49.9769 -53.77956,-74.43792 -17.64942,-24.46102 -36.02567,-49.63896 -40.83608,-55.95101 l -8.74624,-11.47644 -21.90664,21.46165 c -19.53835,19.14149 -44.87795,39.88279 -51.36738,42.04594 -1.50398,0.50133 2.14747,16.35467 10.01168,43.4673 9.32786,32.15875 12.03318,44.52201 10.97571,50.15882 -3.74764,19.97662 -25.74749,30.76667 -44.19306,21.67494 z"
     id="path31"
     inkscape:connector-curvature="0" />
</svg>
