<?xml version="1.0" encoding="UTF-8" standalone="no"?>
<!-- Created with Inkscape (http://www.inkscape.org/) -->

<svg
   xmlns:dc="http://purl.org/dc/elements/1.1/"
   xmlns:cc="http://creativecommons.org/ns#"
   xmlns:rdf="http://www.w3.org/1999/02/22-rdf-syntax-ns#"
   xmlns:svg="http://www.w3.org/2000/svg"
   xmlns="http://www.w3.org/2000/svg"
   xmlns:sodipodi="http://sodipodi.sourceforge.net/DTD/sodipodi-0.dtd"
   xmlns:inkscape="http://www.inkscape.org/namespaces/inkscape"
   version="1.1"
   id="svg2"
   width="512"
   height="512"
   viewBox="0 0 512 512"
   sodipodi:docname="airfreight-white.svg"
   inkscape:version="0.92.3 (2405546, 2018-03-11)">
  <metadata
     id="metadata8">
    <rdf:RDF>
      <cc:Work
         rdf:about="">
        <dc:format>image/svg+xml</dc:format>
        <dc:type
           rdf:resource="http://purl.org/dc/dcmitype/StillImage" />
        <dc:title></dc:title>
      </cc:Work>
    </rdf:RDF>
  </metadata>
  <defs
     id="defs6" />
  <sodipodi:namedview
     pagecolor="#ffffff"
     bordercolor="#666666"
     borderopacity="1"
     objecttolerance="10"
     gridtolerance="10"
     guidetolerance="10"
     inkscape:pageopacity="0"
     inkscape:pageshadow="2"
     inkscape:window-width="1853"
     inkscape:window-height="1025"
     id="namedview4"
     showgrid="false"
     inkscape:zoom="0.921875"
     inkscape:cx="221.46141"
     inkscape:cy="172.70463"
     inkscape:window-x="67"
     inkscape:window-y="27"
     inkscape:window-maximized="1"
     inkscape:current-layer="svg2" />
  <path
     style="fill:#808080;stroke-width:1.08474576"
     d="m 170.91226,507.45092 c -5.23216,-2.85981 -13.52847,-12.93698 -34.00521,-41.30464 -9.62911,-13.3398 -19.37128,-25.73034 -21.64925,-27.53453 l -4.14176,-3.28034 -18.644269,7.35392 c -20.99606,8.28156 -26.72141,9.49271 -30.16063,6.38027 -3.02687,-2.73929 -2.46708,-5.49738 4.92851,-24.28263 3.33128,-8.46165 5.78144,-15.83049 5.44479,-16.37519 -0.33664,-0.54471 -0.0951,-0.99037 0.53668,-0.99037 0.63182,0 1.14877,-1.95255 1.14877,-4.33899 0,-2.38644 -0.48814,-4.33898 -1.08475,-4.33898 -0.59661,0 -0.98774,-0.3661 -0.86918,-0.81356 0.3165,-1.1945 -7.81147,-9.53865 -8.98147,-9.22034 -0.54824,0.14915 -0.99681,-0.18556 -0.99681,-0.74379 0,-0.55823 -5.24746,-4.78976 -11.66102,-9.40339 C 13.492611,351.73785 5.7444805,345.26949 3.7061505,339.2625 c -1.63659,-4.82307 -1.63954,-18.03821 -0.005,-22.14186 1.81815,-4.56445 9.9634005,-12.85232 14.8042705,-15.06349 9.1202,-4.16585 18.07427,-2.83928 59.92717,8.87837 15.06164,4.21685 27.875199,7.3639 28.474579,6.99347 0.59937,-0.37044 1.08977,-0.0997 1.08977,0.60176 0,0.74102 0.90844,1.03772 2.16841,0.70823 1.19264,-0.31188 2.44177,-0.12475 2.77589,0.41585 0.33411,0.54061 1.53714,0.98291 2.6734,0.98291 2.05247,0 5.07387,-3.34906 19.66299,-21.79536 3.96709,-5.01594 15.05346,-17.66226 24.6364,-28.10294 9.58293,-10.44068 18.29646,-20.61534 19.36339,-22.61038 l 1.93986,-3.62732 -3.94424,-3.42352 c -4.44134,-3.85499 -34.01985,-25.57608 -98.564229,-72.381 -50.46269,-36.59345 -64.23546,-47.39249 -68.8415205,-53.97764 -2.86753,-4.09963 -3.33658,-5.81269 -3.68354,-13.4529 -0.22056,-4.856712 0.1734,-10.660862 0.88477,-13.035182 1.65842,-5.53531 8.8759305,-13.32128 15.4250905,-16.63999 9.2139,-4.66904 15.05076,-4.07231 108.206359,11.06246 31.27989,5.08197 58.00531,8.95563 59.38983,8.60814 1.38452,-0.34749 2.51731,-0.14606 2.51731,0.44764 0,0.65645 3.27374,0.92638 8.35455,0.68886 7.61839,-0.35617 8.59019,-0.66453 11.0287,-3.49945 1.47077,-1.70988 3.05586,-3.10888 3.5224,-3.10888 0.46655,0 8.56126,-7.3372 17.98826,-16.30489 28.44352,-27.05769 31.01966,-28.80277 42.57339,-28.83929 9.15566,-0.0289 14.24806,2.31125 20.51013,9.42535 5.05993,5.74837 6.16312,9.79282 5.19575,19.04821 -0.88136,8.43227 -2.30719,10.95535 -13.21352,23.38187 -5.049,5.75276 -9.18,10.850142 -9.18,11.327522 0,1.72639 4.19626,3.02261 18.82504,5.81505 l 14.89341,2.84296 3.48438,-2.15346 c 4.15928,-2.57058 18.9347,-16.091652 48.22453,-44.130522 33.31813,-31.89512 49.29822,-44.5687 66.97942,-53.120406 13.99148,-6.7671249 21.42576,-8.4961959 36.88136,-8.5778919 12.08928,-0.0639 13.40349,0.137222 18.44068,2.822113 7.32734,3.9055649 13.90454,10.9443259 17.56944,18.8023729 5.66356,12.143422 3.44497,31.250512 -6.28297,54.110842 -7.79414,18.31597 -21.65991,35.340732 -63.27172,77.686742 -14.36405,14.61747 -28.40118,29.01747 -31.19363,32 l -5.07718,5.42276 2.67239,15.18644 c 1.46981,8.35254 3.09256,15.33188 3.60609,15.50964 0.51354,0.17776 0.69893,1.22097 0.41199,2.31825 -0.76301,2.91775 1.87132,4.05895 3.67515,1.59207 0.83009,-1.13521 1.67774,-1.81996 1.88368,-1.52166 0.20594,0.29831 4.45611,-2.68557 9.44483,-6.63083 12.53338,-9.91184 17.29036,-12.18497 25.3852,-12.13035 7.92692,0.0535 13.64719,2.68309 19.19509,8.82395 4.84059,5.35796 5.89791,7.30979 7.26553,13.4124 2.39909,10.70521 -2.33382,17.8765 -32.44379,49.15886 -12.54341,13.03182 -22.8062,24.07255 -22.8062,24.53496 0,0.46242 4.85871,30.75975 10.79715,67.32742 14.71152,90.59039 16.10673,101.54533 14.13958,111.02102 -1.10022,5.29974 -2.18635,7.12585 -7.41793,12.4718 -4.34856,4.44364 -7.44355,6.61098 -10.65435,7.46094 -5.81842,1.54025 -22.3203,1.67269 -25.06982,0.2012 -5.93655,-3.17716 -17.85245,-18.54781 -66.95194,-86.36323 -51.30118,-70.85635 -64.37371,-88.23887 -66.16267,-87.97631 -0.87385,0.12826 -10.9945,9.08062 -22.49034,19.89415 -20.77327,19.5403 -30.63598,28.07995 -42.05409,36.4126 -11.14203,8.13117 -10.67762,6.49925 -6.58842,23.15152 1.95623,7.96627 4.02365,14.48414 4.59425,14.48414 0.5706,0 0.74155,0.4788 0.37987,1.064 -0.36166,0.5852 1.0563,7.29706 3.15104,14.91525 11.66979,42.44104 12.00938,49.84324 2.76946,60.36694 -5.54483,6.3152 -10.96574,8.58545 -21.66213,9.07194 -7.57335,0.34446 -9.89851,0.0487 -13.01695,-1.6558 z"
     id="path54"
     inkscape:connector-curvature="0" />
</svg>
